<?xml version="1.0" encoding="UTF-8" standalone="no"?><svg xmlns="http://www.w3.org/2000/svg" xmlns:xlink="http://www.w3.org/1999/xlink" contentScriptType="application/ecmascript" contentStyleType="text/css" height="144px" preserveAspectRatio="none" style="width:265px;height:144px;" version="1.1" viewBox="0 0 265 144" width="265px" zoomAndPan="magnify"><defs><filter height="300%" id="fizh7eefwsuk1" width="300%" x="-1" y="-1"><feGaussianBlur result="blurOut" stdDeviation="2.0"/><feColorMatrix in="blurOut" result="blurOut2" type="matrix" values="0 0 0 0 0 0 0 0 0 0 0 0 0 0 0 0 0 0 .4 0"/><feOffset dx="4.0" dy="4.0" in="blurOut2" result="blurOut3"/><feBlend in="SourceGraphic" in2="blurOut3" mode="normal"/></filter></defs><g><path d="M33,37.509 L33.2802,37.509 L32.4476,48.0524 L33.2577,58.5959 L33.5329,69.1393 L32.0488,79.6828 L32.8964,90.2262 L32.4313,100.7697 L32.4887,111.3131 L32.9091,121.8566 L33,132.4 " fill="none" style="stroke: #000000; stroke-width: 1.0; stroke-dasharray: 5.0,5.0;"/><path d="M223.5,37.509 L223.7802,37.509 L222.9476,48.0524 L223.7577,58.5959 L224.0329,69.1393 L222.5488,79.6828 L223.3964,90.2262 L222.9313,100.7697 L222.9887,111.3131 L223.4091,121.8566 L223.5,132.4 " fill="none" style="stroke: #000000; stroke-width: 1.0; stroke-dasharray: 5.0,5.0;"/><polygon fill="#BAE4B3" filter="url(#fizh7eefwsuk1)" points="8,3,8,3.2102,17.2,2.5857,26.4,3.1933,35.6,3.3997,44.8,2.2866,54,3,53.9741,3,53.8578,8.9018,53.8722,14.8036,53.9773,20.7054,53.7695,26.6072,54,32.509,54,33.0626,44.8,31.8787,35.6,32.3112,26.4,32.9409,17.2,32.4232,8,32.509,8.0227,32.509,7.9894,26.6072,8.0595,20.7054,8.0797,14.8036,8.1952,8.9018,8,3" style="stroke: #BAE4B3; stroke-width: 1.5;"/><text fill="#000000" font-family="Helvetica Neue" font-size="13" lengthAdjust="spacingAndGlyphs" textLength="32" x="15" y="22.74">Sales</text><polygon fill="#BAE4B3" filter="url(#fizh7eefwsuk1)" points="189.5,3,189.5,3.2102,198.7857,2.5857,208.0714,3.1933,217.3571,3.3997,226.6429,2.2866,235.9286,2.9223,245.2143,2.5735,254.5,3,254.3722,3,254.4773,8.9018,254.2695,14.8036,254.6845,20.7054,254.2899,26.6072,254.5,32.509,254.5,32.3112,245.2143,32.9409,235.9286,32.4232,226.6429,32.5772,217.3571,32.4771,208.0714,32.6875,198.7857,32.7481,189.5,32.509,189.6952,32.509,189.7237,26.6072,189.7264,20.7054,189.5849,14.8036,189.6545,8.9018,189.5,3" style="stroke: #BAE4B3; stroke-width: 1.5;"/><text fill="#000000" font-family="Helvetica Neue" font-size="13" lengthAdjust="spacingAndGlyphs" textLength="51" x="196.5" y="22.74">Shipping</text><polygon fill="#0000FF" points="44,65.382,44.026,65.4471,41.9487,66.0538,40.0239,67.0418,38.0495,67.9057,35.9117,68.3612,34,69.382,33.9904,69.3579,35.9472,70.05,37.9525,70.8633,39.9916,71.7609,41.9144,72.368,44,73.382,44.1305,73.5125,43.0514,72.4334,42.3534,71.7354,41.7018,71.0838,40.7798,70.1618,40,69.382,40.0161,69.3981,40.7925,68.5745,41.6421,67.8241,42.4564,67.0384,43.338,66.32,44,65.382" style="stroke: #0000FF; stroke-width: 1.0;"/><path d="M38,69.382 L38,69.6622 L47.7368,68.8296 L57.4737,69.6397 L67.2105,69.9149 L76.9474,68.4308 L86.6842,69.2784 L96.4211,68.8133 L106.1579,68.8707 L115.8947,69.2911 L125.6316,68.4602 L135.3684,70.1202 L145.1053,68.5416 L154.8421,69.1183 L164.5789,69.9579 L174.3158,69.2676 L184.0526,69.473 L193.7895,69.3394 L203.5263,69.62 L213.2632,69.7008 L223,69.382 " fill="none" style="stroke: #0000FF; stroke-width: 1.0;"/><text fill="#000000" font-family="Helvetica Neue" font-size="13" font-weight="bold" lengthAdjust="spacingAndGlyphs" textLength="15" x="50" y="64.561">[1]</text><text fill="#000000" font-family="Helvetica Neue" font-size="13" lengthAdjust="spacingAndGlyphs" textLength="109" x="69" y="64.431">Subscribe (Orders)</text><polygon fill="#0000FF" points="212,110.4,212.026,110.4651,213.9487,111.0718,216.0239,112.0598,218.0495,112.9237,219.9117,113.3792,222,114.4,221.9904,114.376,219.9472,115.068,217.9525,115.8813,215.9916,116.7789,213.9144,117.386,212,118.4,212.1305,118.5305,212.6514,117.4514,213.5534,116.7534,214.5018,116.1018,215.1798,115.1798,216,114.4,216.0161,114.4161,215.1925,113.5925,214.4421,112.8421,213.6564,112.0564,212.938,111.3381,212,110.4" style="stroke: #0000FF; stroke-width: 1.0;"/><path d="M33,114.4 L33,114.6802 L42.7368,113.8476 L52.4737,114.6577 L62.2105,114.9329 L71.9474,113.4488 L81.6842,114.2964 L91.4211,113.8313 L101.1579,113.8887 L110.8947,114.3091 L120.6316,113.4782 L130.3684,115.1382 L140.1053,113.5596 L149.8421,114.1363 L159.5789,114.9759 L169.3158,114.2856 L179.0526,114.491 L188.7895,114.3574 L198.5263,114.638 L208.2632,114.7188 L218,114.4 " fill="none" style="stroke: #0000FF; stroke-width: 1.0;"/><text fill="#000000" font-family="Helvetica Neue" font-size="13" font-weight="bold" lengthAdjust="spacingAndGlyphs" textLength="15" x="40" y="102.0065">[2]</text><text fill="#000000" font-family="Helvetica Neue" font-size="13" lengthAdjust="spacingAndGlyphs" textLength="63" x="59" y="94.122">New Order</text><text fill="#000000" font-family="Helvetica Neue" font-size="13" lengthAdjust="spacingAndGlyphs" textLength="144" x="63" y="109.631">{ order-id: 1234 items: []}</text><!--
@startuml
hide footbox

skinparam handwritten true

skinparam sequence {
   ArrowColor blue
   ParticipantBorderColor #BAE4B3
   ParticipantBackgroundColor #BAE4B3

  DefaultFontName "Helvetica Neue"
  DefaultFontSize 13
  DefaultFontStyle UltaLight
  DefaultFontColor grey
  ParticipantFontName "Helvetica Neue"
  ParticipantFontStyle UltraLight
  ParticipantFontSize 13

  ArrowFontName  "Helvetica Neue"
  ArrowFontStyle UltraLight
  ArrowFontSize 13

  SequenceArrowFontSize 13
  SequenceMessageFontSize 13

   LifeLineBorderColor black
  SequenceMessageAlign left
}

autonumber 1 1 "<b>[0]"

participant Sales
participant Shipping

Shipping -> Sales: Subscribe (Orders)
Sales -> Shipping  : New Order\n { order-id: 1234 items: []}

@enduml

PlantUML version 1.2018.13(Mon Nov 26 10:11:51 MST 2018)
(APACHE source distribution)
Java Runtime: Java(TM) SE Runtime Environment
JVM: Java HotSpot(TM) 64-Bit Server VM
Java Version: 10.0.2+13
Operating System: Mac OS X
OS Version: 10.14.3
Default Encoding: UTF-8
Language: en
Country: US
--></g></svg>